<?xml version="1.0" encoding="UTF-8"?>
<svg id="X" xmlns="http://www.w3.org/2000/svg" width="1440" height="1440" viewBox="0 0 1440 1440">
  <defs>
    <style>
      .cls-1 {
        fill: #512d84;
      }

      .cls-2 {
        fill: #ece94c;
      }
    </style>
  </defs>
  <g>
    <rect class="cls-2" x="1015.96" y="551.75" width="336.5" height="336.5" rx="76.71" ry="76.71"/>
    <path class="cls-1" d="M1321.86,806.1c-10.74-10.95-21.48-21.88-32.23-32.81l-7.5-7.63-10.02-10.2c-11.05-11.29-22.47-22.9-33.78-34.28-.35-.32-.64-.69-.87-1.1.22-.41.52-.79.87-1.1,19.05-19.29,38.37-38.95,57.05-57.97l26.01-26.46c2.02-2.06,4.05-4.34,4.61-7.7.65-3.56-.28-7.22-2.55-10.03-2.17-2.65-5.44-4.18-8.87-4.13-16.23-.08-32.73-.08-48.65-.08h-24.32c-4.67,0-7.59,2.9-10.18,5.46l-.68.67h0c-4.58,4.66-9.04,9.16-13.03,13.15-3.31,3.34-6.34,6.41-8.96,9.07s-6.23,6.36-10.37,10.61l-14.4,14.77-23.23-23.68-1.94-2.02-3.15-3.29-5.68-5.89c-4.82-5.01-9.82-10.2-14.77-15.27-2.32-2.4-5.31-3.56-9.14-3.56h-71.56c-5.61,0-9.65,2.61-11.4,7.37-1.83,5.02-.87,9.65,2.86,13.39,4.46,4.53,9,9.14,13.37,13.59l4.49,4.57c3.83,3.89,7.76,7.82,11.54,11.63,8.41,8.43,17.1,17.15,25.33,26.02,6.26,6.82,13.9,12.24,22.41,15.89,8.08,3.49,16.81,5.23,25.62,5.11,18.04-.27,34.75-8.17,47.06-22.24,3.82-3.87,7.65-7.75,11.48-11.61,12.07-12.24,24.57-24.89,36.78-37.42,1.44-1.62,3.55-2.49,5.72-2.35,8.69.09,17.49.07,26.06.05h10.65c-6.08,5.84-11.95,11.96-17.68,17.89l-4.67,4.79c-7.09,7.31-14.42,14.63-21.51,21.72-3.6,3.59-7.32,7.31-10.97,10.98-2.74,2.76-5.52,5.59-8.21,8.31-3.04,3.1-6.18,6.3-9.29,9.42-3.59,3.6-5.32,7-5.31,10.42.02,3.42,1.8,6.78,5.43,10.35,3.96,3.9,7.92,7.95,11.74,11.87l4.93,5.03c3.47,3.47,6.95,7.06,10.3,10.52,7.95,8.16,16.17,16.59,24.49,24.65,2.68,2.61,5.3,5.38,7.82,8.06,4.46,4.62,13.08,12.9,13.14,12.96h-13.94c-7.75,0-15.77,0-23.65.06-1.7.1-3.36-.6-4.46-1.89-17.59-18.03-35.48-36.18-51.25-52.21-1.03-1.03-2.11-1.98-3.15-2.9-.48-.42-.96-.87-1.44-1.28-13.58-11.89-29.53-17-47.54-15.19-7.36.71-14.53,2.75-21.16,6.02-6.8,3.41-12.97,7.96-18.24,13.45-11.61,11.92-23.45,23.98-34.95,35.62-6.82,6.95-13.9,14.09-20.85,21.15-2.92,2.89-4.31,7-3.74,11.08.56,3.69,2.84,6.89,6.15,8.63,1.68.82,3.53,1.21,5.39,1.13h10.05c20.6,0,41.9,0,62.87.09h0c3.17.07,6.22-1.19,8.41-3.47,3.61-3.72,7.22-7.45,10.6-10.95l3.47-3.62,7.09-7.36,3.47-3.64,24.14-24.55c.4.4.79.8,1.18,1.21l11.94,12.16c11.92,12.16,24.24,24.73,36.38,37.07,2.81,2.85,6.35,3.2,8.8,3.2h.07c25.14-.06,47.78-.1,70.81,0h.09c5.91,0,9.8-2.24,11.9-6.85,1.55-3.49,2.28-8.78-3.26-14.43ZM1154.67,685.69c-14.63,2.27-27.06-2.39-37.99-14.25-7.82-8.45-16.08-16.68-24.08-24.64-3.32-3.29-6.73-6.69-10.08-10.06h13.37c7.9,0,16.05,0,24.08-.07,1.36-.07,2.67.49,3.56,1.51,4.77,4.83,9.69,9.66,14.44,14.33l4.74,4.67,1.38,1.36,22.73,23.07c-3.76,2.11-7.89,3.49-12.16,4.06ZM1166.84,758.42l-21.96,22.32-.87.87-1.74,1.74-5.21,5.13c-4.47,4.41-9.1,8.97-13.59,13.53-.96,1.12-2.39,1.72-3.86,1.63-10.29-.08-20.78-.07-30.92-.06h-6.46l3.95-4.04c10.72-10.95,21.8-22.26,32.78-33.3,12.25-12.34,26.93-15.64,43.69-9.72,1.44.51,2.84,1.15,4.18,1.9h0Z"/>
  </g>
  <g>
    <path class="cls-2" d="M153.74,816.15c-18.67,0-32.67-4.75-42-14.25-9.34-9.5-14-23.05-14-40.65v-137.4h51.08v42.6h61.54v41.4h-61.54v49.5c0,11.8,6.05,17.7,18.15,17.7h41.85v41.1h-55.08Z"/>
    <path class="cls-2" d="M308.51,816.15c-11.9,0-22.88-1.8-32.92-5.4-10.05-3.6-18.77-8.7-26.15-15.3-7.38-6.6-13.13-14.5-17.23-23.7-4.11-9.2-6.15-19.4-6.15-30.6s2.05-21.1,6.15-30.3c4.1-9.2,9.85-17.1,17.23-23.7s16.1-11.7,26.15-15.3c10.05-3.6,21.02-5.4,32.92-5.4h39.08c8.82,0,16.51,1.2,23.08,3.6,6.56,2.4,12.05,5.7,16.46,9.9,4.41,4.2,7.69,9.25,9.85,15.15,2.15,5.9,3.23,12.35,3.23,19.35,0,13.2-3.9,23.1-11.69,29.7-7.8,6.6-20.62,9.9-38.46,9.9h-54.77v-27.3h44c8,0,12-3.5,12-10.5,0-7.4-3.9-11.1-11.69-11.1h-31.39c-9.23,0-16.72,3.1-22.46,9.3-5.75,6.2-8.62,15-8.62,26.4s2.87,19.95,8.62,25.65c5.74,5.7,13.23,8.55,22.46,8.55h83.69v41.1h-83.39Z"/>
    <path class="cls-2" d="M468.52,816.15c-16.21,0-28.31-4.1-36.31-12.3-8-8.2-12-18.8-12-31.8s4-23.9,12-32.1c8-8.2,20.1-12.3,36.31-12.3h57.23v29.1h-45.54c-7.59,0-11.38,3.5-11.38,10.5s3.59,10.5,10.77,10.5h61.23v-43.2c0-17-8.92-25.5-26.77-25.5h-85.54v-42.6h86.16c25.64,0,44.82,6.15,57.54,18.45,12.72,12.3,19.08,29.95,19.08,52.95v78.3h-122.77Z"/>
    <path class="cls-2" d="M825.76,816.15v-78.6c0-17-8.82-25.5-26.46-25.5h-24.62v104.1h-51.08v-104.1h-50.46v104.1h-51.69v-149.7h179.08c25.43,0,44.51,6.2,57.23,18.6,12.72,12.4,19.08,30,19.08,52.8v78.3h-51.08Z"/>
  </g>
</svg>