<?xml version="1.0" encoding="UTF-8"?>
<svg id="X" xmlns="http://www.w3.org/2000/svg" width="1440" height="1440" viewBox="0 0 1440 1440">
  <defs>
    <style>
      .cls-1 {
        fill: #ece94c;
      }
    </style>
  </defs>
  <path class="cls-1" d="M1261.78,1055.71c-41.86-42.67-83.74-85.31-125.65-127.92l-29.23-29.74-39.08-39.76c-43.08-44.03-87.62-89.28-131.71-133.64-1.35-1.24-2.49-2.7-3.39-4.3.88-1.62,2.02-3.07,3.39-4.3,74.27-75.22,149.59-151.86,222.41-226l101.4-103.16c7.89-8.03,15.78-16.93,17.98-30.01,2.53-13.87-1.11-28.15-9.96-39.12-8.48-10.35-21.2-16.28-34.58-16.12-63.26-.3-127.61-.3-189.66-.3h-94.83c-18.22,0-29.6,11.31-39.69,21.3l-2.64,2.61h0c-17.85,18.15-35.26,35.73-50.8,51.28-12.9,13.04-24.72,24.99-34.92,35.36-10.19,10.36-24.28,24.79-40.44,41.35l-56.15,57.58-90.56-92.32-7.55-7.89-12.29-12.84-22.15-22.96c-18.8-19.54-38.27-39.76-57.58-59.54-9.04-9.35-20.69-13.89-35.63-13.89H219.47c-21.88,0-37.63,10.16-44.43,28.75-7.15,19.58-3.39,37.63,11.14,52.19,17.41,17.65,35.09,35.63,52.12,53l17.51,17.81c14.94,15.17,30.24,30.48,45.01,45.35,32.78,32.89,66.69,66.85,98.76,101.43,24.41,26.6,54.2,47.71,87.38,61.94,31.51,13.61,65.55,20.4,99.88,19.91,70.34-1.05,135.47-31.87,183.46-86.7,14.9-15.11,29.81-30.2,44.74-45.28,47.08-47.72,95.81-97.03,143.4-145.9,5.62-6.33,13.84-9.72,22.29-9.18,33.87.34,68.21.27,101.6.2h41.52c-23.71,22.76-46.6,46.64-68.92,69.77l-18.22,18.66c-27.64,28.52-56.22,57.03-83.86,84.67-14.06,13.99-28.55,28.48-42.77,42.81-10.7,10.77-21.54,21.78-32.01,32.41-11.85,12.09-24.11,24.55-36.24,36.71-13.99,14.06-20.76,27.3-20.69,40.64.07,13.34,7.01,26.45,21.17,40.37,15.44,15.21,30.89,30.99,45.79,46.26l19.2,19.61c13.55,13.55,27.09,27.53,40.17,41.01,30.99,31.8,63.03,64.69,95.47,96.12,10.43,10.16,20.66,20.96,30.48,31.43,17.37,18.02,51,50.29,51.24,50.53h-54.36c-30.21,0-61.47,0-92.22.24-6.64.4-13.08-2.33-17.41-7.38-68.58-70.31-138.32-141.06-199.82-203.55-4-4.03-8.23-7.72-12.29-11.31-1.86-1.63-3.73-3.39-5.62-4.98-52.94-46.36-115.15-66.28-185.36-59.23-28.69,2.78-56.64,10.74-82.5,23.47-26.52,13.3-50.57,31.03-71.12,52.43-45.25,46.47-91.44,93.47-136.25,138.86-26.59,27.09-54.19,54.93-81.28,82.47-11.4,11.29-16.8,27.3-14.56,43.18,2.18,14.39,11.09,26.88,23.98,33.63,6.53,3.21,13.76,4.72,21.03,4.4h39.18c80.3,0,163.38,0,245.1.34h0c12.34.28,24.24-4.63,32.78-13.55,14.09-14.5,28.14-29.06,41.32-42.71l13.55-14.12,27.64-28.69,13.55-14.19,94.12-95.71c1.56,1.56,3.08,3.12,4.61,4.71l46.53,47.41c46.47,47.41,94.49,96.42,141.84,144.55,10.94,11.11,24.76,12.46,34.31,12.46h.27c98.01-.24,186.27-.41,276.09,0h.34c23.03,0,38.2-8.74,46.4-26.69,6.06-13.61,8.91-34.24-12.7-56.25ZM609.96,586.24c-57.03,8.84-105.5-9.31-148.1-55.54-30.48-32.95-62.69-65.03-93.88-96.05-12.94-12.84-26.25-26.08-39.29-39.22h52.12c30.79,0,62.59,0,93.88-.27,5.29-.27,10.41,1.9,13.89,5.89,18.59,18.83,37.76,37.66,56.29,55.88l18.49,18.22,5.39,5.32,88.63,89.95c-14.66,8.23-30.75,13.59-47.41,15.82ZM657.37,869.81l-85.62,87.04-3.39,3.39-6.77,6.77-20.32,20.02c-17.44,17.2-35.49,34.99-53,52.73-3.74,4.36-9.3,6.71-15.04,6.37-40.13-.3-81.01-.27-120.54-.24h-25.2l15.41-15.75c41.79-42.67,85.01-86.77,127.82-129.85,47.75-48.09,104.99-60.96,170.35-37.9,5.63,2,11.08,4.48,16.29,7.42h0Z"/>
</svg>